G75*
%MOIN*%
%OFA0B0*%
%FSLAX25Y25*%
%IPPOS*%
%LPD*%
%AMOC8*
5,1,8,0,0,1.08239X$1,22.5*
%
%ADD10C,0.07000*%
%ADD11C,0.05200*%
%ADD12R,0.07795X0.07795*%
%ADD13C,0.07795*%
%ADD14OC8,0.05200*%
%ADD15OC8,0.08500*%
%ADD16OC8,0.10000*%
%ADD17R,0.05400X0.05400*%
%ADD18C,0.05400*%
%ADD19C,0.05000*%
%ADD20C,0.05600*%
%ADD21C,0.03200*%
%ADD22C,0.01600*%
D10*
X0076800Y0049300D03*
X0076800Y0069300D03*
X0106800Y0056800D03*
X0126800Y0056800D03*
X0161800Y0051800D03*
X0161800Y0011800D03*
X0051800Y0126800D03*
X0051800Y0136800D03*
X0031800Y0129300D03*
X0031800Y0146800D03*
X0051800Y0176800D03*
X0051800Y0186800D03*
X0031800Y0186800D03*
X0031800Y0089300D03*
X0161800Y0146800D03*
X0161800Y0186800D03*
D11*
X0146800Y0149400D02*
X0146800Y0144200D01*
X0146800Y0109400D02*
X0146800Y0104200D01*
X0146800Y0094400D02*
X0146800Y0089200D01*
X0146800Y0054400D02*
X0146800Y0049200D01*
D12*
X0196800Y0046800D03*
X0196800Y0149241D03*
D13*
X0196800Y0138611D03*
X0196800Y0127981D03*
X0196800Y0036170D03*
X0196800Y0025540D03*
D14*
X0181800Y0024300D03*
X0181800Y0074300D03*
X0181800Y0081800D03*
X0181800Y0131800D03*
X0086700Y0166800D03*
X0076800Y0156800D03*
X0066900Y0166800D03*
D15*
X0076800Y0121800D03*
X0011800Y0136800D03*
X0011800Y0089300D03*
X0011800Y0186800D03*
D16*
X0031800Y0074600D03*
X0031800Y0049000D03*
D17*
X0086800Y0141800D03*
D18*
X0086800Y0131800D03*
X0086800Y0121800D03*
X0086800Y0111800D03*
X0116800Y0111800D03*
X0116800Y0121800D03*
X0116800Y0131800D03*
X0116800Y0141800D03*
D19*
X0116800Y0186800D01*
X0051800Y0186800D01*
X0031800Y0186800D01*
X0011800Y0186800D01*
X0051800Y0176800D02*
X0051800Y0166800D01*
X0066900Y0166800D01*
X0051800Y0166800D02*
X0051800Y0136800D01*
X0031800Y0136800D01*
X0031800Y0146800D01*
X0031800Y0136800D02*
X0011800Y0136800D01*
X0031800Y0136800D02*
X0031800Y0129300D01*
X0051800Y0126800D02*
X0051800Y0111800D01*
X0031800Y0089300D02*
X0011800Y0089300D01*
X0116800Y0121800D02*
X0121800Y0121800D01*
X0126800Y0116800D01*
X0126800Y0074300D01*
X0126800Y0056800D01*
X0146800Y0051800D02*
X0161800Y0051800D01*
X0146800Y0091800D02*
X0146800Y0106800D01*
X0116800Y0131800D02*
X0131800Y0146800D01*
X0146800Y0146800D01*
X0161800Y0146800D01*
X0161800Y0186800D02*
X0116800Y0186800D01*
D20*
X0161800Y0186800D02*
X0186800Y0186800D01*
X0206800Y0166800D01*
X0206800Y0144300D01*
X0202489Y0139300D01*
X0196800Y0138611D01*
X0196800Y0149241D02*
X0164241Y0149241D01*
X0161800Y0146800D01*
X0161800Y0126800D01*
X0196800Y0086800D01*
X0196800Y0046800D01*
X0166800Y0046800D01*
X0161800Y0051800D01*
X0181800Y0074300D02*
X0126800Y0074300D01*
X0106800Y0056800D02*
X0084300Y0056800D01*
X0076800Y0049300D01*
X0032100Y0049300D01*
X0031800Y0049000D01*
X0031800Y0089300D02*
X0051800Y0089300D01*
X0051800Y0111800D01*
X0181800Y0131800D02*
X0185619Y0127981D01*
X0196800Y0127981D01*
X0181800Y0081800D02*
X0181800Y0074300D01*
X0183040Y0025540D02*
X0181800Y0024300D01*
X0183040Y0025540D02*
X0196800Y0025540D01*
D21*
X0116800Y0111800D02*
X0101800Y0111800D01*
X0096800Y0116800D01*
X0096800Y0141800D01*
X0086800Y0141800D01*
X0096800Y0141800D02*
X0096800Y0156700D01*
X0086700Y0166800D01*
X0076800Y0156800D02*
X0076800Y0136800D01*
X0081800Y0131800D01*
X0086800Y0131800D01*
X0086800Y0121800D02*
X0076800Y0121800D01*
D22*
X0007250Y0083314D02*
X0007250Y0007250D01*
X0156875Y0007250D01*
X0156120Y0008005D01*
X0155100Y0010467D01*
X0155100Y0013133D01*
X0156120Y0015595D01*
X0158005Y0017480D01*
X0160467Y0018500D01*
X0163133Y0018500D01*
X0165595Y0017480D01*
X0167480Y0015595D01*
X0168500Y0013133D01*
X0168500Y0010467D01*
X0167480Y0008005D01*
X0166725Y0007250D01*
X0212885Y0007250D01*
X0212885Y0193200D01*
X0163856Y0193200D01*
X0164823Y0192800D01*
X0187993Y0192800D01*
X0190199Y0191887D01*
X0210199Y0171887D01*
X0211887Y0170199D01*
X0212800Y0167993D01*
X0212800Y0144522D01*
X0212872Y0143553D01*
X0212800Y0143335D01*
X0212800Y0143107D01*
X0212428Y0142209D01*
X0212123Y0141286D01*
X0211974Y0141113D01*
X0211887Y0140901D01*
X0211199Y0140214D01*
X0207124Y0135488D01*
X0206475Y0134659D01*
X0206348Y0134588D01*
X0206254Y0134478D01*
X0205313Y0134004D01*
X0204395Y0133487D01*
X0204251Y0133470D01*
X0204122Y0133404D01*
X0203071Y0133327D01*
X0201663Y0133156D01*
X0202817Y0132002D01*
X0203898Y0129393D01*
X0203898Y0126569D01*
X0202817Y0123961D01*
X0200820Y0121964D01*
X0198212Y0120883D01*
X0195388Y0120883D01*
X0192780Y0121964D01*
X0192762Y0121981D01*
X0184425Y0121981D01*
X0182220Y0122895D01*
X0176713Y0128401D01*
X0176513Y0128884D01*
X0176000Y0129398D01*
X0176000Y0130124D01*
X0175800Y0130607D01*
X0175800Y0132993D01*
X0176000Y0133476D01*
X0176000Y0134202D01*
X0176513Y0134716D01*
X0176713Y0135199D01*
X0178401Y0136887D01*
X0178884Y0137087D01*
X0179398Y0137600D01*
X0180124Y0137600D01*
X0180607Y0137800D01*
X0182993Y0137800D01*
X0183476Y0137600D01*
X0184202Y0137600D01*
X0184716Y0137087D01*
X0185199Y0136887D01*
X0188104Y0133981D01*
X0191392Y0133981D01*
X0190783Y0134591D01*
X0189702Y0137199D01*
X0189702Y0140023D01*
X0190783Y0142632D01*
X0190936Y0142784D01*
X0190479Y0143241D01*
X0167800Y0143241D01*
X0167800Y0129054D01*
X0201184Y0090901D01*
X0201887Y0090199D01*
X0201965Y0090008D01*
X0202101Y0089853D01*
X0202420Y0088911D01*
X0202800Y0087993D01*
X0202800Y0087787D01*
X0202866Y0087592D01*
X0202800Y0086600D01*
X0202800Y0053121D01*
X0203410Y0052510D01*
X0203898Y0051334D01*
X0203898Y0042266D01*
X0203410Y0041090D01*
X0202664Y0040343D01*
X0202817Y0040191D01*
X0203898Y0037582D01*
X0203898Y0034758D01*
X0202817Y0032150D01*
X0201523Y0030855D01*
X0202817Y0029561D01*
X0203898Y0026952D01*
X0203898Y0024128D01*
X0202817Y0021520D01*
X0200820Y0019523D01*
X0198212Y0018443D01*
X0195388Y0018443D01*
X0192780Y0019523D01*
X0192762Y0019540D01*
X0185525Y0019540D01*
X0185199Y0019213D01*
X0184716Y0019013D01*
X0184202Y0018500D01*
X0183476Y0018500D01*
X0182993Y0018300D01*
X0180607Y0018300D01*
X0180124Y0018500D01*
X0179398Y0018500D01*
X0178884Y0019013D01*
X0178401Y0019213D01*
X0176713Y0020901D01*
X0176513Y0021384D01*
X0176000Y0021898D01*
X0176000Y0022624D01*
X0175800Y0023107D01*
X0175800Y0025493D01*
X0176000Y0025976D01*
X0176000Y0026702D01*
X0176513Y0027216D01*
X0176713Y0027699D01*
X0179641Y0030627D01*
X0181847Y0031540D01*
X0191392Y0031540D01*
X0190783Y0032150D01*
X0189702Y0034758D01*
X0189702Y0037582D01*
X0190783Y0040191D01*
X0190936Y0040343D01*
X0190479Y0040800D01*
X0165607Y0040800D01*
X0163401Y0041713D01*
X0159695Y0045420D01*
X0158053Y0046100D01*
X0151794Y0046100D01*
X0151717Y0045915D01*
X0150085Y0044283D01*
X0147954Y0043400D01*
X0145646Y0043400D01*
X0143515Y0044283D01*
X0141883Y0045915D01*
X0141000Y0048046D01*
X0141000Y0055554D01*
X0141883Y0057685D01*
X0143515Y0059317D01*
X0145646Y0060200D01*
X0147954Y0060200D01*
X0150085Y0059317D01*
X0151717Y0057685D01*
X0151794Y0057500D01*
X0158053Y0057500D01*
X0160467Y0058500D01*
X0163133Y0058500D01*
X0165595Y0057480D01*
X0167480Y0055595D01*
X0168180Y0053905D01*
X0169285Y0052800D01*
X0190479Y0052800D01*
X0190800Y0053121D01*
X0190800Y0084546D01*
X0157416Y0122699D01*
X0156713Y0123401D01*
X0156634Y0123592D01*
X0156499Y0123747D01*
X0156180Y0124689D01*
X0155800Y0125607D01*
X0155800Y0125813D01*
X0155734Y0126008D01*
X0155800Y0127000D01*
X0155800Y0141100D01*
X0151794Y0141100D01*
X0151717Y0140915D01*
X0150085Y0139283D01*
X0147954Y0138400D01*
X0145646Y0138400D01*
X0143515Y0139283D01*
X0141883Y0140915D01*
X0141806Y0141100D01*
X0134161Y0141100D01*
X0122002Y0128941D01*
X0121802Y0128458D01*
X0120844Y0127500D01*
X0122934Y0127500D01*
X0125029Y0126632D01*
X0130029Y0121632D01*
X0130029Y0121632D01*
X0131632Y0120029D01*
X0132500Y0117934D01*
X0132500Y0080300D01*
X0175800Y0080300D01*
X0175800Y0082993D01*
X0176000Y0083476D01*
X0176000Y0084202D01*
X0176513Y0084716D01*
X0176713Y0085199D01*
X0178401Y0086887D01*
X0178884Y0087087D01*
X0179398Y0087600D01*
X0180124Y0087600D01*
X0180607Y0087800D01*
X0182993Y0087800D01*
X0183476Y0087600D01*
X0184202Y0087600D01*
X0184716Y0087087D01*
X0185199Y0086887D01*
X0186887Y0085199D01*
X0187087Y0084716D01*
X0187600Y0084202D01*
X0187600Y0083476D01*
X0187800Y0082993D01*
X0187800Y0073107D01*
X0187600Y0072624D01*
X0187600Y0071898D01*
X0187087Y0071384D01*
X0186887Y0070901D01*
X0185199Y0069213D01*
X0184716Y0069013D01*
X0184202Y0068500D01*
X0183476Y0068500D01*
X0182993Y0068300D01*
X0132500Y0068300D01*
X0132500Y0060547D01*
X0133500Y0058133D01*
X0133500Y0055467D01*
X0132480Y0053005D01*
X0130595Y0051120D01*
X0128133Y0050100D01*
X0125467Y0050100D01*
X0123005Y0051120D01*
X0121120Y0053005D01*
X0120100Y0055467D01*
X0120100Y0058133D01*
X0121100Y0060547D01*
X0121100Y0072382D01*
X0120800Y0073107D01*
X0120800Y0075493D01*
X0121100Y0076218D01*
X0121100Y0107756D01*
X0120142Y0106798D01*
X0117974Y0105900D01*
X0115626Y0105900D01*
X0113458Y0106798D01*
X0113256Y0107000D01*
X0100845Y0107000D01*
X0099081Y0107731D01*
X0094081Y0112731D01*
X0092731Y0114081D01*
X0092000Y0115845D01*
X0092000Y0118937D01*
X0091802Y0118458D01*
X0090144Y0116800D01*
X0091802Y0115142D01*
X0092700Y0112974D01*
X0092700Y0110626D01*
X0091802Y0108458D01*
X0090142Y0106798D01*
X0087974Y0105900D01*
X0085626Y0105900D01*
X0083458Y0106798D01*
X0081798Y0108458D01*
X0080900Y0110626D01*
X0080900Y0112974D01*
X0081798Y0115142D01*
X0083456Y0116800D01*
X0083256Y0117000D01*
X0082536Y0117000D01*
X0079886Y0114350D01*
X0073714Y0114350D01*
X0069350Y0118714D01*
X0069350Y0124886D01*
X0073714Y0129250D01*
X0077562Y0129250D01*
X0072731Y0134081D01*
X0072000Y0135845D01*
X0072000Y0153398D01*
X0071000Y0154398D01*
X0071000Y0159202D01*
X0074398Y0162600D01*
X0079202Y0162600D01*
X0082600Y0159202D01*
X0082600Y0154398D01*
X0081600Y0153398D01*
X0081600Y0146525D01*
X0082287Y0147213D01*
X0083463Y0147700D01*
X0090137Y0147700D01*
X0091313Y0147213D01*
X0091925Y0146600D01*
X0092000Y0146600D01*
X0092000Y0154712D01*
X0085712Y0161000D01*
X0084298Y0161000D01*
X0080900Y0164398D01*
X0080900Y0169202D01*
X0084298Y0172600D01*
X0089102Y0172600D01*
X0092500Y0169202D01*
X0092500Y0167788D01*
X0100869Y0159419D01*
X0101600Y0157655D01*
X0101600Y0118788D01*
X0103788Y0116600D01*
X0113256Y0116600D01*
X0113456Y0116800D01*
X0111798Y0118458D01*
X0110900Y0120626D01*
X0110900Y0122974D01*
X0111798Y0125142D01*
X0113456Y0126800D01*
X0111798Y0128458D01*
X0110900Y0130626D01*
X0110900Y0132974D01*
X0111798Y0135142D01*
X0113456Y0136800D01*
X0111798Y0138458D01*
X0110900Y0140626D01*
X0110900Y0142974D01*
X0111100Y0143456D01*
X0111100Y0181100D01*
X0056975Y0181100D01*
X0057480Y0180595D01*
X0058500Y0178133D01*
X0058500Y0175467D01*
X0057500Y0173053D01*
X0057500Y0172500D01*
X0064398Y0172500D01*
X0064498Y0172600D01*
X0069302Y0172600D01*
X0072700Y0169202D01*
X0072700Y0164398D01*
X0069302Y0161000D01*
X0064498Y0161000D01*
X0064398Y0161100D01*
X0057500Y0161100D01*
X0057500Y0140547D01*
X0058500Y0138133D01*
X0058500Y0135467D01*
X0057480Y0133005D01*
X0056275Y0131800D01*
X0057480Y0130595D01*
X0058500Y0128133D01*
X0058500Y0125467D01*
X0057500Y0123053D01*
X0057500Y0113718D01*
X0057800Y0112993D01*
X0057800Y0088107D01*
X0056887Y0085901D01*
X0055199Y0084213D01*
X0052993Y0083300D01*
X0034823Y0083300D01*
X0033616Y0082800D01*
X0035197Y0082800D01*
X0040000Y0077997D01*
X0040000Y0071203D01*
X0035197Y0066400D01*
X0028403Y0066400D01*
X0023600Y0071203D01*
X0023600Y0077997D01*
X0028403Y0082800D01*
X0029984Y0082800D01*
X0028053Y0083600D01*
X0016636Y0083600D01*
X0014886Y0081850D01*
X0008714Y0081850D01*
X0007250Y0083314D01*
X0007250Y0081726D02*
X0027329Y0081726D01*
X0028719Y0083324D02*
X0016360Y0083324D01*
X0024132Y0078529D02*
X0007250Y0078529D01*
X0007250Y0080127D02*
X0025731Y0080127D01*
X0023600Y0076930D02*
X0007250Y0076930D01*
X0007250Y0075332D02*
X0023600Y0075332D01*
X0023600Y0073733D02*
X0007250Y0073733D01*
X0007250Y0072134D02*
X0023600Y0072134D01*
X0024267Y0070536D02*
X0007250Y0070536D01*
X0007250Y0068937D02*
X0025866Y0068937D01*
X0027464Y0067339D02*
X0007250Y0067339D01*
X0007250Y0065740D02*
X0071022Y0065740D01*
X0071120Y0065505D02*
X0073005Y0063620D01*
X0075467Y0062600D01*
X0078133Y0062600D01*
X0080595Y0063620D01*
X0082480Y0065505D01*
X0083500Y0067967D01*
X0083500Y0070633D01*
X0082480Y0073095D01*
X0080595Y0074980D01*
X0078133Y0076000D01*
X0075467Y0076000D01*
X0073005Y0074980D01*
X0071120Y0073095D01*
X0070100Y0070633D01*
X0070100Y0067967D01*
X0071120Y0065505D01*
X0072483Y0064142D02*
X0007250Y0064142D01*
X0007250Y0062543D02*
X0082487Y0062543D01*
X0083107Y0062800D02*
X0080901Y0061887D01*
X0074695Y0055680D01*
X0073777Y0055300D01*
X0037097Y0055300D01*
X0035197Y0057200D01*
X0028403Y0057200D01*
X0023600Y0052397D01*
X0023600Y0045603D01*
X0028403Y0040800D01*
X0035197Y0040800D01*
X0037697Y0043300D01*
X0073777Y0043300D01*
X0075467Y0042600D01*
X0078133Y0042600D01*
X0080595Y0043620D01*
X0082480Y0045505D01*
X0083180Y0047195D01*
X0086785Y0050800D01*
X0103777Y0050800D01*
X0105467Y0050100D01*
X0108133Y0050100D01*
X0110595Y0051120D01*
X0112480Y0053005D01*
X0113500Y0055467D01*
X0113500Y0058133D01*
X0112480Y0060595D01*
X0110595Y0062480D01*
X0108133Y0063500D01*
X0105467Y0063500D01*
X0103777Y0062800D01*
X0083107Y0062800D01*
X0081117Y0064142D02*
X0121100Y0064142D01*
X0121100Y0065740D02*
X0082578Y0065740D01*
X0083240Y0067339D02*
X0121100Y0067339D01*
X0121100Y0068937D02*
X0083500Y0068937D01*
X0083500Y0070536D02*
X0121100Y0070536D01*
X0121100Y0072134D02*
X0082878Y0072134D01*
X0081842Y0073733D02*
X0120800Y0073733D01*
X0120800Y0075332D02*
X0079747Y0075332D01*
X0073853Y0075332D02*
X0040000Y0075332D01*
X0040000Y0076930D02*
X0091697Y0076930D01*
X0092516Y0076457D02*
X0089985Y0077918D01*
X0087918Y0079985D01*
X0086457Y0082516D01*
X0085701Y0085339D01*
X0085701Y0088261D01*
X0086457Y0091084D01*
X0087918Y0093615D01*
X0089985Y0095682D01*
X0092516Y0097143D01*
X0095339Y0097899D01*
X0098261Y0097899D01*
X0101084Y0097143D01*
X0103615Y0095682D01*
X0105682Y0093615D01*
X0107143Y0091084D01*
X0107899Y0088261D01*
X0107899Y0085339D01*
X0107143Y0082516D01*
X0105682Y0079985D01*
X0103615Y0077918D01*
X0101084Y0076457D01*
X0098261Y0075701D01*
X0095339Y0075701D01*
X0092516Y0076457D01*
X0089375Y0078529D02*
X0039468Y0078529D01*
X0037869Y0080127D02*
X0087836Y0080127D01*
X0086913Y0081726D02*
X0036271Y0081726D01*
X0040000Y0073733D02*
X0071758Y0073733D01*
X0070722Y0072134D02*
X0040000Y0072134D01*
X0039333Y0070536D02*
X0070100Y0070536D01*
X0070100Y0068937D02*
X0037734Y0068937D01*
X0036136Y0067339D02*
X0070360Y0067339D01*
X0078361Y0059346D02*
X0007250Y0059346D01*
X0007250Y0057748D02*
X0076763Y0057748D01*
X0075164Y0056149D02*
X0036247Y0056149D01*
X0027353Y0056149D02*
X0007250Y0056149D01*
X0007250Y0054551D02*
X0025754Y0054551D01*
X0024156Y0052952D02*
X0007250Y0052952D01*
X0007250Y0051354D02*
X0023600Y0051354D01*
X0023600Y0049755D02*
X0007250Y0049755D01*
X0007250Y0048157D02*
X0023600Y0048157D01*
X0023600Y0046558D02*
X0007250Y0046558D01*
X0007250Y0044960D02*
X0024244Y0044960D01*
X0025842Y0043361D02*
X0007250Y0043361D01*
X0007250Y0041763D02*
X0027441Y0041763D01*
X0036159Y0041763D02*
X0163352Y0041763D01*
X0161753Y0043361D02*
X0079971Y0043361D01*
X0081935Y0044960D02*
X0142838Y0044960D01*
X0141616Y0046558D02*
X0082916Y0046558D01*
X0084142Y0048157D02*
X0141000Y0048157D01*
X0141000Y0049755D02*
X0085741Y0049755D01*
X0079960Y0060945D02*
X0007250Y0060945D01*
X0007250Y0040164D02*
X0190772Y0040164D01*
X0190110Y0038566D02*
X0007250Y0038566D01*
X0007250Y0036967D02*
X0189702Y0036967D01*
X0189702Y0035369D02*
X0007250Y0035369D01*
X0007250Y0033770D02*
X0190112Y0033770D01*
X0190774Y0032172D02*
X0007250Y0032172D01*
X0007250Y0030573D02*
X0179588Y0030573D01*
X0177989Y0028975D02*
X0007250Y0028975D01*
X0007250Y0027376D02*
X0176580Y0027376D01*
X0175918Y0025778D02*
X0007250Y0025778D01*
X0007250Y0024179D02*
X0175800Y0024179D01*
X0176000Y0022581D02*
X0007250Y0022581D01*
X0007250Y0020982D02*
X0176680Y0020982D01*
X0178231Y0019384D02*
X0007250Y0019384D01*
X0007250Y0017785D02*
X0158741Y0017785D01*
X0156711Y0016187D02*
X0007250Y0016187D01*
X0007250Y0014588D02*
X0155703Y0014588D01*
X0155100Y0012990D02*
X0007250Y0012990D01*
X0007250Y0011391D02*
X0155100Y0011391D01*
X0155379Y0009793D02*
X0007250Y0009793D01*
X0007250Y0008194D02*
X0156042Y0008194D01*
X0164859Y0017785D02*
X0212885Y0017785D01*
X0212885Y0016187D02*
X0166889Y0016187D01*
X0167897Y0014588D02*
X0212885Y0014588D01*
X0212885Y0012990D02*
X0168500Y0012990D01*
X0168500Y0011391D02*
X0212885Y0011391D01*
X0212885Y0009793D02*
X0168220Y0009793D01*
X0167558Y0008194D02*
X0212885Y0008194D01*
X0212885Y0019384D02*
X0200484Y0019384D01*
X0202280Y0020982D02*
X0212885Y0020982D01*
X0212885Y0022581D02*
X0203257Y0022581D01*
X0203898Y0024179D02*
X0212885Y0024179D01*
X0212885Y0025778D02*
X0203898Y0025778D01*
X0203722Y0027376D02*
X0212885Y0027376D01*
X0212885Y0028975D02*
X0203060Y0028975D01*
X0201805Y0030573D02*
X0212885Y0030573D01*
X0212885Y0032172D02*
X0202826Y0032172D01*
X0203488Y0033770D02*
X0212885Y0033770D01*
X0212885Y0035369D02*
X0203898Y0035369D01*
X0203898Y0036967D02*
X0212885Y0036967D01*
X0212885Y0038566D02*
X0203490Y0038566D01*
X0202828Y0040164D02*
X0212885Y0040164D01*
X0212885Y0041763D02*
X0203689Y0041763D01*
X0203898Y0043361D02*
X0212885Y0043361D01*
X0212885Y0044960D02*
X0203898Y0044960D01*
X0203898Y0046558D02*
X0212885Y0046558D01*
X0212885Y0048157D02*
X0203898Y0048157D01*
X0203898Y0049755D02*
X0212885Y0049755D01*
X0212885Y0051354D02*
X0203889Y0051354D01*
X0202968Y0052952D02*
X0212885Y0052952D01*
X0212885Y0054551D02*
X0202800Y0054551D01*
X0202800Y0056149D02*
X0212885Y0056149D01*
X0212885Y0057748D02*
X0202800Y0057748D01*
X0202800Y0059346D02*
X0212885Y0059346D01*
X0212885Y0060945D02*
X0202800Y0060945D01*
X0202800Y0062543D02*
X0212885Y0062543D01*
X0212885Y0064142D02*
X0202800Y0064142D01*
X0202800Y0065740D02*
X0212885Y0065740D01*
X0212885Y0067339D02*
X0202800Y0067339D01*
X0202800Y0068937D02*
X0212885Y0068937D01*
X0212885Y0070536D02*
X0202800Y0070536D01*
X0202800Y0072134D02*
X0212885Y0072134D01*
X0212885Y0073733D02*
X0202800Y0073733D01*
X0202800Y0075332D02*
X0212885Y0075332D01*
X0212885Y0076930D02*
X0202800Y0076930D01*
X0202800Y0078529D02*
X0212885Y0078529D01*
X0212885Y0080127D02*
X0202800Y0080127D01*
X0202800Y0081726D02*
X0212885Y0081726D01*
X0212885Y0083324D02*
X0202800Y0083324D01*
X0202800Y0084923D02*
X0212885Y0084923D01*
X0212885Y0086521D02*
X0202800Y0086521D01*
X0202748Y0088120D02*
X0212885Y0088120D01*
X0212885Y0089718D02*
X0202147Y0089718D01*
X0200821Y0091317D02*
X0212885Y0091317D01*
X0212885Y0092915D02*
X0199422Y0092915D01*
X0198023Y0094514D02*
X0212885Y0094514D01*
X0212885Y0096112D02*
X0196624Y0096112D01*
X0195226Y0097711D02*
X0212885Y0097711D01*
X0212885Y0099309D02*
X0193827Y0099309D01*
X0192428Y0100908D02*
X0212885Y0100908D01*
X0212885Y0102506D02*
X0191030Y0102506D01*
X0189631Y0104105D02*
X0212885Y0104105D01*
X0212885Y0105703D02*
X0188232Y0105703D01*
X0186834Y0107302D02*
X0212885Y0107302D01*
X0212885Y0108900D02*
X0185435Y0108900D01*
X0184036Y0110499D02*
X0212885Y0110499D01*
X0212885Y0112097D02*
X0182637Y0112097D01*
X0181239Y0113696D02*
X0212885Y0113696D01*
X0212885Y0115294D02*
X0179840Y0115294D01*
X0178441Y0116893D02*
X0212885Y0116893D01*
X0212885Y0118491D02*
X0177043Y0118491D01*
X0175644Y0120090D02*
X0212885Y0120090D01*
X0212885Y0121688D02*
X0200155Y0121688D01*
X0202143Y0123287D02*
X0212885Y0123287D01*
X0212885Y0124885D02*
X0203200Y0124885D01*
X0203862Y0126484D02*
X0212885Y0126484D01*
X0212885Y0128082D02*
X0203898Y0128082D01*
X0203778Y0129681D02*
X0212885Y0129681D01*
X0212885Y0131279D02*
X0203116Y0131279D01*
X0201941Y0132878D02*
X0212885Y0132878D01*
X0212885Y0134476D02*
X0206250Y0134476D01*
X0207631Y0136075D02*
X0212885Y0136075D01*
X0212885Y0137673D02*
X0209009Y0137673D01*
X0210387Y0139272D02*
X0212885Y0139272D01*
X0212885Y0140870D02*
X0211856Y0140870D01*
X0212536Y0142469D02*
X0212885Y0142469D01*
X0212834Y0144068D02*
X0212885Y0144068D01*
X0212885Y0145666D02*
X0212800Y0145666D01*
X0212800Y0147265D02*
X0212885Y0147265D01*
X0212885Y0148863D02*
X0212800Y0148863D01*
X0212800Y0150462D02*
X0212885Y0150462D01*
X0212885Y0152060D02*
X0212800Y0152060D01*
X0212800Y0153659D02*
X0212885Y0153659D01*
X0212885Y0155257D02*
X0212800Y0155257D01*
X0212800Y0156856D02*
X0212885Y0156856D01*
X0212885Y0158454D02*
X0212800Y0158454D01*
X0212800Y0160053D02*
X0212885Y0160053D01*
X0212885Y0161651D02*
X0212800Y0161651D01*
X0212800Y0163250D02*
X0212885Y0163250D01*
X0212885Y0164848D02*
X0212800Y0164848D01*
X0212800Y0166447D02*
X0212885Y0166447D01*
X0212885Y0168045D02*
X0212779Y0168045D01*
X0212885Y0169644D02*
X0212116Y0169644D01*
X0212885Y0171242D02*
X0210843Y0171242D01*
X0209245Y0172841D02*
X0212885Y0172841D01*
X0212885Y0174439D02*
X0207646Y0174439D01*
X0206048Y0176038D02*
X0212885Y0176038D01*
X0212885Y0177636D02*
X0204449Y0177636D01*
X0202851Y0179235D02*
X0212885Y0179235D01*
X0212885Y0180833D02*
X0201252Y0180833D01*
X0199653Y0182432D02*
X0212885Y0182432D01*
X0212885Y0184030D02*
X0198055Y0184030D01*
X0196456Y0185629D02*
X0212885Y0185629D01*
X0212885Y0187227D02*
X0194858Y0187227D01*
X0193259Y0188826D02*
X0212885Y0188826D01*
X0212885Y0190424D02*
X0191661Y0190424D01*
X0189870Y0192023D02*
X0212885Y0192023D01*
X0192274Y0172841D02*
X0122500Y0172841D01*
X0122500Y0174439D02*
X0190675Y0174439D01*
X0189077Y0176038D02*
X0122500Y0176038D01*
X0122500Y0177636D02*
X0187478Y0177636D01*
X0185880Y0179235D02*
X0122500Y0179235D01*
X0122500Y0180833D02*
X0158697Y0180833D01*
X0158053Y0181100D02*
X0160467Y0180100D01*
X0163133Y0180100D01*
X0164823Y0180800D01*
X0184315Y0180800D01*
X0200800Y0164315D01*
X0200800Y0156339D01*
X0192266Y0156339D01*
X0191090Y0155851D01*
X0190479Y0155241D01*
X0163047Y0155241D01*
X0160842Y0154327D01*
X0159695Y0153180D01*
X0158053Y0152500D01*
X0151794Y0152500D01*
X0151717Y0152685D01*
X0150085Y0154317D01*
X0147954Y0155200D01*
X0145646Y0155200D01*
X0143515Y0154317D01*
X0141883Y0152685D01*
X0141806Y0152500D01*
X0130666Y0152500D01*
X0128571Y0151632D01*
X0126968Y0150029D01*
X0122500Y0145561D01*
X0122500Y0181100D01*
X0158053Y0181100D01*
X0158053Y0192500D02*
X0055547Y0192500D01*
X0053856Y0193200D01*
X0159744Y0193200D01*
X0158053Y0192500D01*
X0122500Y0171242D02*
X0193873Y0171242D01*
X0195471Y0169644D02*
X0122500Y0169644D01*
X0122500Y0168045D02*
X0197070Y0168045D01*
X0198668Y0166447D02*
X0122500Y0166447D01*
X0122500Y0164848D02*
X0200267Y0164848D01*
X0200800Y0163250D02*
X0122500Y0163250D01*
X0122500Y0161651D02*
X0200800Y0161651D01*
X0200800Y0160053D02*
X0122500Y0160053D01*
X0122500Y0158454D02*
X0200800Y0158454D01*
X0200800Y0156856D02*
X0122500Y0156856D01*
X0122500Y0155257D02*
X0190495Y0155257D01*
X0190716Y0142469D02*
X0167800Y0142469D01*
X0167800Y0140870D02*
X0190053Y0140870D01*
X0189702Y0139272D02*
X0167800Y0139272D01*
X0167800Y0137673D02*
X0180301Y0137673D01*
X0177590Y0136075D02*
X0167800Y0136075D01*
X0167800Y0134476D02*
X0176274Y0134476D01*
X0175800Y0132878D02*
X0167800Y0132878D01*
X0167800Y0131279D02*
X0175800Y0131279D01*
X0176000Y0129681D02*
X0167800Y0129681D01*
X0168650Y0128082D02*
X0177032Y0128082D01*
X0178631Y0126484D02*
X0170049Y0126484D01*
X0171448Y0124885D02*
X0180229Y0124885D01*
X0181828Y0123287D02*
X0172847Y0123287D01*
X0174245Y0121688D02*
X0193445Y0121688D01*
X0190897Y0134476D02*
X0187609Y0134476D01*
X0186010Y0136075D02*
X0190168Y0136075D01*
X0189702Y0137673D02*
X0183299Y0137673D01*
X0161097Y0118491D02*
X0132269Y0118491D01*
X0132500Y0116893D02*
X0162496Y0116893D01*
X0163895Y0115294D02*
X0132500Y0115294D01*
X0132500Y0113696D02*
X0142893Y0113696D01*
X0143515Y0114317D02*
X0141883Y0112685D01*
X0141000Y0110554D01*
X0141000Y0103046D01*
X0141100Y0102805D01*
X0141100Y0095795D01*
X0141000Y0095554D01*
X0141000Y0088046D01*
X0141883Y0085915D01*
X0143515Y0084283D01*
X0145646Y0083400D01*
X0147954Y0083400D01*
X0150085Y0084283D01*
X0151717Y0085915D01*
X0152600Y0088046D01*
X0152600Y0095554D01*
X0152500Y0095795D01*
X0152500Y0102805D01*
X0152600Y0103046D01*
X0152600Y0110554D01*
X0151717Y0112685D01*
X0150085Y0114317D01*
X0147954Y0115200D01*
X0145646Y0115200D01*
X0143515Y0114317D01*
X0141639Y0112097D02*
X0132500Y0112097D01*
X0132500Y0110499D02*
X0141000Y0110499D01*
X0141000Y0108900D02*
X0132500Y0108900D01*
X0132500Y0107302D02*
X0141000Y0107302D01*
X0141000Y0105703D02*
X0132500Y0105703D01*
X0132500Y0104105D02*
X0141000Y0104105D01*
X0141100Y0102506D02*
X0132500Y0102506D01*
X0132500Y0100908D02*
X0141100Y0100908D01*
X0141100Y0099309D02*
X0132500Y0099309D01*
X0132500Y0097711D02*
X0141100Y0097711D01*
X0141100Y0096112D02*
X0132500Y0096112D01*
X0132500Y0094514D02*
X0141000Y0094514D01*
X0141000Y0092915D02*
X0132500Y0092915D01*
X0132500Y0091317D02*
X0141000Y0091317D01*
X0141000Y0089718D02*
X0132500Y0089718D01*
X0132500Y0088120D02*
X0141000Y0088120D01*
X0141632Y0086521D02*
X0132500Y0086521D01*
X0132500Y0084923D02*
X0142875Y0084923D01*
X0150725Y0084923D02*
X0176599Y0084923D01*
X0175937Y0083324D02*
X0132500Y0083324D01*
X0132500Y0081726D02*
X0175800Y0081726D01*
X0178036Y0086521D02*
X0151968Y0086521D01*
X0152600Y0088120D02*
X0187673Y0088120D01*
X0186274Y0089718D02*
X0152600Y0089718D01*
X0152600Y0091317D02*
X0184875Y0091317D01*
X0183477Y0092915D02*
X0152600Y0092915D01*
X0152600Y0094514D02*
X0182078Y0094514D01*
X0180679Y0096112D02*
X0152500Y0096112D01*
X0152500Y0097711D02*
X0179281Y0097711D01*
X0177882Y0099309D02*
X0152500Y0099309D01*
X0152500Y0100908D02*
X0176483Y0100908D01*
X0175084Y0102506D02*
X0152500Y0102506D01*
X0152600Y0104105D02*
X0173686Y0104105D01*
X0172287Y0105703D02*
X0152600Y0105703D01*
X0152600Y0107302D02*
X0170888Y0107302D01*
X0169490Y0108900D02*
X0152600Y0108900D01*
X0152600Y0110499D02*
X0168091Y0110499D01*
X0166692Y0112097D02*
X0151961Y0112097D01*
X0150707Y0113696D02*
X0165294Y0113696D01*
X0159699Y0120090D02*
X0131571Y0120090D01*
X0129973Y0121688D02*
X0158300Y0121688D01*
X0156828Y0123287D02*
X0128374Y0123287D01*
X0126776Y0124885D02*
X0156099Y0124885D01*
X0155766Y0126484D02*
X0125177Y0126484D01*
X0122742Y0129681D02*
X0155800Y0129681D01*
X0155800Y0131279D02*
X0124340Y0131279D01*
X0125939Y0132878D02*
X0155800Y0132878D01*
X0155800Y0134476D02*
X0127537Y0134476D01*
X0129136Y0136075D02*
X0155800Y0136075D01*
X0155800Y0137673D02*
X0130734Y0137673D01*
X0132333Y0139272D02*
X0143541Y0139272D01*
X0141927Y0140870D02*
X0133931Y0140870D01*
X0125802Y0148863D02*
X0122500Y0148863D01*
X0122500Y0147265D02*
X0124204Y0147265D01*
X0122605Y0145666D02*
X0122500Y0145666D01*
X0122500Y0150462D02*
X0127401Y0150462D01*
X0129604Y0152060D02*
X0122500Y0152060D01*
X0122500Y0153659D02*
X0142856Y0153659D01*
X0150744Y0153659D02*
X0160173Y0153659D01*
X0155800Y0140870D02*
X0151673Y0140870D01*
X0150059Y0139272D02*
X0155800Y0139272D01*
X0155800Y0128082D02*
X0121426Y0128082D01*
X0113140Y0126484D02*
X0101600Y0126484D01*
X0101600Y0128082D02*
X0112174Y0128082D01*
X0111292Y0129681D02*
X0101600Y0129681D01*
X0101600Y0131279D02*
X0110900Y0131279D01*
X0110900Y0132878D02*
X0101600Y0132878D01*
X0101600Y0134476D02*
X0111523Y0134476D01*
X0112731Y0136075D02*
X0101600Y0136075D01*
X0101600Y0137673D02*
X0112583Y0137673D01*
X0111461Y0139272D02*
X0101600Y0139272D01*
X0101600Y0140870D02*
X0110900Y0140870D01*
X0110900Y0142469D02*
X0101600Y0142469D01*
X0101600Y0144068D02*
X0111100Y0144068D01*
X0111100Y0145666D02*
X0101600Y0145666D01*
X0101600Y0147265D02*
X0111100Y0147265D01*
X0111100Y0148863D02*
X0101600Y0148863D01*
X0101600Y0150462D02*
X0111100Y0150462D01*
X0111100Y0152060D02*
X0101600Y0152060D01*
X0101600Y0153659D02*
X0111100Y0153659D01*
X0111100Y0155257D02*
X0101600Y0155257D01*
X0101600Y0156856D02*
X0111100Y0156856D01*
X0111100Y0158454D02*
X0101269Y0158454D01*
X0100236Y0160053D02*
X0111100Y0160053D01*
X0111100Y0161651D02*
X0098637Y0161651D01*
X0097039Y0163250D02*
X0111100Y0163250D01*
X0111100Y0164848D02*
X0095440Y0164848D01*
X0093842Y0166447D02*
X0111100Y0166447D01*
X0111100Y0168045D02*
X0092500Y0168045D01*
X0092059Y0169644D02*
X0111100Y0169644D01*
X0111100Y0171242D02*
X0090460Y0171242D01*
X0082940Y0171242D02*
X0070660Y0171242D01*
X0072259Y0169644D02*
X0081341Y0169644D01*
X0080900Y0168045D02*
X0072700Y0168045D01*
X0072700Y0166447D02*
X0080900Y0166447D01*
X0080900Y0164848D02*
X0072700Y0164848D01*
X0071552Y0163250D02*
X0082048Y0163250D01*
X0083646Y0161651D02*
X0080151Y0161651D01*
X0081750Y0160053D02*
X0086659Y0160053D01*
X0088258Y0158454D02*
X0082600Y0158454D01*
X0082600Y0156856D02*
X0089856Y0156856D01*
X0091455Y0155257D02*
X0082600Y0155257D01*
X0081861Y0153659D02*
X0092000Y0153659D01*
X0092000Y0152060D02*
X0081600Y0152060D01*
X0081600Y0150462D02*
X0092000Y0150462D01*
X0092000Y0148863D02*
X0081600Y0148863D01*
X0081600Y0147265D02*
X0082412Y0147265D01*
X0091188Y0147265D02*
X0092000Y0147265D01*
X0092000Y0137000D02*
X0092000Y0134663D01*
X0091802Y0135142D01*
X0090778Y0136166D01*
X0091313Y0136387D01*
X0091925Y0137000D01*
X0092000Y0137000D01*
X0092000Y0136075D02*
X0090869Y0136075D01*
X0092000Y0128937D02*
X0092000Y0124663D01*
X0091802Y0125142D01*
X0090144Y0126800D01*
X0091802Y0128458D01*
X0092000Y0128937D01*
X0092000Y0128082D02*
X0091426Y0128082D01*
X0092000Y0126484D02*
X0090460Y0126484D01*
X0091908Y0124885D02*
X0092000Y0124885D01*
X0092000Y0118491D02*
X0091816Y0118491D01*
X0092000Y0116893D02*
X0090237Y0116893D01*
X0091650Y0115294D02*
X0092228Y0115294D01*
X0092401Y0113696D02*
X0093116Y0113696D01*
X0092700Y0112097D02*
X0094714Y0112097D01*
X0096313Y0110499D02*
X0092647Y0110499D01*
X0091985Y0108900D02*
X0097912Y0108900D01*
X0100117Y0107302D02*
X0090646Y0107302D01*
X0082954Y0107302D02*
X0057800Y0107302D01*
X0057800Y0108900D02*
X0081615Y0108900D01*
X0080953Y0110499D02*
X0057800Y0110499D01*
X0057800Y0112097D02*
X0080900Y0112097D01*
X0081199Y0113696D02*
X0057509Y0113696D01*
X0057500Y0115294D02*
X0072770Y0115294D01*
X0071171Y0116893D02*
X0057500Y0116893D01*
X0057500Y0118491D02*
X0069573Y0118491D01*
X0069350Y0120090D02*
X0057500Y0120090D01*
X0057500Y0121688D02*
X0069350Y0121688D01*
X0069350Y0123287D02*
X0057597Y0123287D01*
X0058259Y0124885D02*
X0069350Y0124885D01*
X0070948Y0126484D02*
X0058500Y0126484D01*
X0058500Y0128082D02*
X0072547Y0128082D01*
X0075532Y0131279D02*
X0056796Y0131279D01*
X0057353Y0132878D02*
X0073934Y0132878D01*
X0072567Y0134476D02*
X0058090Y0134476D01*
X0058500Y0136075D02*
X0072000Y0136075D01*
X0072000Y0137673D02*
X0058500Y0137673D01*
X0058028Y0139272D02*
X0072000Y0139272D01*
X0072000Y0140870D02*
X0057500Y0140870D01*
X0057500Y0142469D02*
X0072000Y0142469D01*
X0072000Y0144068D02*
X0057500Y0144068D01*
X0057500Y0145666D02*
X0072000Y0145666D01*
X0072000Y0147265D02*
X0057500Y0147265D01*
X0057500Y0148863D02*
X0072000Y0148863D01*
X0072000Y0150462D02*
X0057500Y0150462D01*
X0057500Y0152060D02*
X0072000Y0152060D01*
X0071739Y0153659D02*
X0057500Y0153659D01*
X0057500Y0155257D02*
X0071000Y0155257D01*
X0071000Y0156856D02*
X0057500Y0156856D01*
X0057500Y0158454D02*
X0071000Y0158454D01*
X0071850Y0160053D02*
X0057500Y0160053D01*
X0069954Y0161651D02*
X0073449Y0161651D01*
X0057500Y0172841D02*
X0111100Y0172841D01*
X0111100Y0174439D02*
X0058074Y0174439D01*
X0058500Y0176038D02*
X0111100Y0176038D01*
X0111100Y0177636D02*
X0058500Y0177636D01*
X0058044Y0179235D02*
X0111100Y0179235D01*
X0111100Y0180833D02*
X0057242Y0180833D01*
X0046625Y0181100D02*
X0046120Y0180595D01*
X0045100Y0178133D01*
X0045100Y0175467D01*
X0046100Y0173053D01*
X0046100Y0142500D01*
X0037500Y0142500D01*
X0037500Y0143053D01*
X0038500Y0145467D01*
X0038500Y0148133D01*
X0037480Y0150595D01*
X0035595Y0152480D01*
X0033133Y0153500D01*
X0030467Y0153500D01*
X0028005Y0152480D01*
X0026120Y0150595D01*
X0025100Y0148133D01*
X0025100Y0145467D01*
X0026100Y0143053D01*
X0026100Y0142500D01*
X0016636Y0142500D01*
X0014886Y0144250D01*
X0008714Y0144250D01*
X0007250Y0142786D01*
X0007250Y0180814D01*
X0008714Y0179350D01*
X0014886Y0179350D01*
X0016636Y0181100D01*
X0028053Y0181100D01*
X0030467Y0180100D01*
X0033133Y0180100D01*
X0035547Y0181100D01*
X0046625Y0181100D01*
X0046358Y0180833D02*
X0034903Y0180833D01*
X0028697Y0180833D02*
X0016369Y0180833D01*
X0007250Y0179235D02*
X0045556Y0179235D01*
X0045100Y0177636D02*
X0007250Y0177636D01*
X0007250Y0176038D02*
X0045100Y0176038D01*
X0045526Y0174439D02*
X0007250Y0174439D01*
X0007250Y0172841D02*
X0046100Y0172841D01*
X0046100Y0171242D02*
X0007250Y0171242D01*
X0007250Y0169644D02*
X0046100Y0169644D01*
X0046100Y0168045D02*
X0007250Y0168045D01*
X0007250Y0166447D02*
X0046100Y0166447D01*
X0046100Y0164848D02*
X0007250Y0164848D01*
X0007250Y0163250D02*
X0046100Y0163250D01*
X0046100Y0161651D02*
X0007250Y0161651D01*
X0007250Y0160053D02*
X0046100Y0160053D01*
X0046100Y0158454D02*
X0007250Y0158454D01*
X0007250Y0156856D02*
X0046100Y0156856D01*
X0046100Y0155257D02*
X0007250Y0155257D01*
X0007250Y0153659D02*
X0046100Y0153659D01*
X0046100Y0152060D02*
X0036015Y0152060D01*
X0037535Y0150462D02*
X0046100Y0150462D01*
X0046100Y0148863D02*
X0038197Y0148863D01*
X0038500Y0147265D02*
X0046100Y0147265D01*
X0046100Y0145666D02*
X0038500Y0145666D01*
X0037920Y0144068D02*
X0046100Y0144068D01*
X0046625Y0131100D02*
X0038306Y0131100D01*
X0038500Y0130633D01*
X0038500Y0127967D01*
X0037480Y0125505D01*
X0035595Y0123620D01*
X0033133Y0122600D01*
X0030467Y0122600D01*
X0028005Y0123620D01*
X0026120Y0125505D01*
X0025100Y0127967D01*
X0025100Y0130633D01*
X0025294Y0131100D01*
X0016636Y0131100D01*
X0014886Y0129350D01*
X0008714Y0129350D01*
X0007250Y0130814D01*
X0007250Y0095286D01*
X0008714Y0096750D01*
X0014886Y0096750D01*
X0016636Y0095000D01*
X0028053Y0095000D01*
X0030467Y0096000D01*
X0033133Y0096000D01*
X0034823Y0095300D01*
X0045800Y0095300D01*
X0045800Y0112993D01*
X0046100Y0113718D01*
X0046100Y0123053D01*
X0045100Y0125467D01*
X0045100Y0128133D01*
X0046120Y0130595D01*
X0046625Y0131100D01*
X0045741Y0129681D02*
X0038500Y0129681D01*
X0038500Y0128082D02*
X0045100Y0128082D01*
X0045100Y0126484D02*
X0037886Y0126484D01*
X0036861Y0124885D02*
X0045341Y0124885D01*
X0046003Y0123287D02*
X0034791Y0123287D01*
X0028809Y0123287D02*
X0007250Y0123287D01*
X0007250Y0124885D02*
X0026739Y0124885D01*
X0025714Y0126484D02*
X0007250Y0126484D01*
X0007250Y0128082D02*
X0025100Y0128082D01*
X0025100Y0129681D02*
X0015217Y0129681D01*
X0008383Y0129681D02*
X0007250Y0129681D01*
X0007250Y0121688D02*
X0046100Y0121688D01*
X0046100Y0120090D02*
X0007250Y0120090D01*
X0007250Y0118491D02*
X0046100Y0118491D01*
X0046100Y0116893D02*
X0007250Y0116893D01*
X0007250Y0115294D02*
X0046100Y0115294D01*
X0046091Y0113696D02*
X0007250Y0113696D01*
X0007250Y0112097D02*
X0045800Y0112097D01*
X0045800Y0110499D02*
X0007250Y0110499D01*
X0007250Y0108900D02*
X0045800Y0108900D01*
X0045800Y0107302D02*
X0007250Y0107302D01*
X0007250Y0105703D02*
X0045800Y0105703D01*
X0045800Y0104105D02*
X0007250Y0104105D01*
X0007250Y0102506D02*
X0045800Y0102506D01*
X0045800Y0100908D02*
X0007250Y0100908D01*
X0007250Y0099309D02*
X0045800Y0099309D01*
X0045800Y0097711D02*
X0007250Y0097711D01*
X0007250Y0096112D02*
X0008076Y0096112D01*
X0015524Y0096112D02*
X0045800Y0096112D01*
X0057143Y0086521D02*
X0085701Y0086521D01*
X0085701Y0088120D02*
X0057800Y0088120D01*
X0057800Y0089718D02*
X0086091Y0089718D01*
X0086591Y0091317D02*
X0057800Y0091317D01*
X0057800Y0092915D02*
X0087514Y0092915D01*
X0088817Y0094514D02*
X0057800Y0094514D01*
X0057800Y0096112D02*
X0090731Y0096112D01*
X0094635Y0097711D02*
X0057800Y0097711D01*
X0057800Y0099309D02*
X0121100Y0099309D01*
X0121100Y0097711D02*
X0098965Y0097711D01*
X0102869Y0096112D02*
X0121100Y0096112D01*
X0121100Y0094514D02*
X0104783Y0094514D01*
X0106086Y0092915D02*
X0121100Y0092915D01*
X0121100Y0091317D02*
X0107009Y0091317D01*
X0107509Y0089718D02*
X0121100Y0089718D01*
X0121100Y0088120D02*
X0107899Y0088120D01*
X0107899Y0086521D02*
X0121100Y0086521D01*
X0121100Y0084923D02*
X0107788Y0084923D01*
X0107359Y0083324D02*
X0121100Y0083324D01*
X0121100Y0081726D02*
X0106687Y0081726D01*
X0105764Y0080127D02*
X0121100Y0080127D01*
X0121100Y0078529D02*
X0104225Y0078529D01*
X0101903Y0076930D02*
X0121100Y0076930D01*
X0132500Y0067339D02*
X0190800Y0067339D01*
X0190800Y0068937D02*
X0184640Y0068937D01*
X0186521Y0070536D02*
X0190800Y0070536D01*
X0190800Y0072134D02*
X0187600Y0072134D01*
X0187800Y0073733D02*
X0190800Y0073733D01*
X0190800Y0075332D02*
X0187800Y0075332D01*
X0187800Y0076930D02*
X0190800Y0076930D01*
X0190800Y0078529D02*
X0187800Y0078529D01*
X0187800Y0080127D02*
X0190800Y0080127D01*
X0190800Y0081726D02*
X0187800Y0081726D01*
X0187663Y0083324D02*
X0190800Y0083324D01*
X0190470Y0084923D02*
X0187001Y0084923D01*
X0185564Y0086521D02*
X0189071Y0086521D01*
X0190800Y0065740D02*
X0132500Y0065740D01*
X0132500Y0064142D02*
X0190800Y0064142D01*
X0190800Y0062543D02*
X0132500Y0062543D01*
X0132500Y0060945D02*
X0190800Y0060945D01*
X0190800Y0059346D02*
X0150014Y0059346D01*
X0151655Y0057748D02*
X0158652Y0057748D01*
X0164948Y0057748D02*
X0190800Y0057748D01*
X0190800Y0056149D02*
X0166926Y0056149D01*
X0167913Y0054551D02*
X0190800Y0054551D01*
X0190632Y0052952D02*
X0169133Y0052952D01*
X0160155Y0044960D02*
X0150762Y0044960D01*
X0141000Y0051354D02*
X0130829Y0051354D01*
X0132428Y0052952D02*
X0141000Y0052952D01*
X0141000Y0054551D02*
X0133120Y0054551D01*
X0133500Y0056149D02*
X0141247Y0056149D01*
X0141945Y0057748D02*
X0133500Y0057748D01*
X0132997Y0059346D02*
X0143586Y0059346D01*
X0122771Y0051354D02*
X0110829Y0051354D01*
X0112428Y0052952D02*
X0121172Y0052952D01*
X0120480Y0054551D02*
X0113120Y0054551D01*
X0113500Y0056149D02*
X0120100Y0056149D01*
X0120100Y0057748D02*
X0113500Y0057748D01*
X0112997Y0059346D02*
X0120603Y0059346D01*
X0121100Y0060945D02*
X0112130Y0060945D01*
X0110442Y0062543D02*
X0121100Y0062543D01*
X0086241Y0083324D02*
X0053052Y0083324D01*
X0055908Y0084923D02*
X0085812Y0084923D01*
X0057800Y0100908D02*
X0121100Y0100908D01*
X0121100Y0102506D02*
X0057800Y0102506D01*
X0057800Y0104105D02*
X0121100Y0104105D01*
X0121100Y0105703D02*
X0057800Y0105703D01*
X0080830Y0115294D02*
X0081950Y0115294D01*
X0082429Y0116893D02*
X0083363Y0116893D01*
X0083256Y0126600D02*
X0082536Y0126600D01*
X0082136Y0127000D01*
X0083256Y0127000D01*
X0083456Y0126800D01*
X0083256Y0126600D01*
X0077131Y0129681D02*
X0057859Y0129681D01*
X0027585Y0152060D02*
X0007250Y0152060D01*
X0007250Y0150462D02*
X0026065Y0150462D01*
X0025403Y0148863D02*
X0007250Y0148863D01*
X0007250Y0147265D02*
X0025100Y0147265D01*
X0025100Y0145666D02*
X0007250Y0145666D01*
X0007250Y0144068D02*
X0008532Y0144068D01*
X0015068Y0144068D02*
X0025680Y0144068D01*
X0028053Y0192500D02*
X0016636Y0192500D01*
X0015935Y0193200D01*
X0029744Y0193200D01*
X0028053Y0192500D01*
X0033856Y0193200D02*
X0035547Y0192500D01*
X0048053Y0192500D01*
X0049744Y0193200D01*
X0033856Y0193200D01*
X0007665Y0193200D02*
X0007250Y0192786D01*
X0007250Y0193200D01*
X0007665Y0193200D01*
X0101600Y0124885D02*
X0111692Y0124885D01*
X0111030Y0123287D02*
X0101600Y0123287D01*
X0101600Y0121688D02*
X0110900Y0121688D01*
X0111122Y0120090D02*
X0101600Y0120090D01*
X0101897Y0118491D02*
X0111784Y0118491D01*
X0113363Y0116893D02*
X0103495Y0116893D01*
X0120646Y0107302D02*
X0121100Y0107302D01*
X0185369Y0019384D02*
X0193116Y0019384D01*
M02*
