%
M48
M72
T01C0.0315
T02C0.0320
T03C0.0340
T04C0.0400
T05C0.0520
T06C0.1260
%
T01
X3180Y4900
X3180Y7460
X3180Y8930
X5180Y12680
X5180Y13680
X3180Y12930
X3180Y14680
X5180Y17680
X5180Y18680
X3180Y18680
X7680Y6930
X7680Y4930
X10680Y5680
X12680Y5680
X16180Y5180
X16180Y1180
X16180Y14680
X16180Y18680
T02
X14680Y14680
X18180Y13180
X14680Y10680
X14680Y9180
X18180Y8180
X18180Y7430
X14680Y5180
X18180Y2430
X7680Y15680
X6690Y16680
X8670Y16680
T03
X8680Y14180
X8680Y13180
X8680Y12180
X8680Y11180
X11680Y11180
X11680Y12180
X11680Y13180
X11680Y14180
T04
X7680Y12180
X1180Y13680
X1180Y8930
X1180Y18680
T05
X19680Y14924
X19680Y13861
X19680Y12798
X19680Y4680
X19680Y3617
X19680Y2554
T06
X9680Y8680
M30
