G75*
%MOIN*%
%OFA0B0*%
%FSLAX25Y25*%
%IPPOS*%
%LPD*%
%AMOC8*
5,1,8,0,0,1.08239X$1,22.5*
%
%ADD10C,0.13398*%
%ADD11C,0.07800*%
%ADD12C,0.06000*%
%ADD13R,0.08595X0.08595*%
%ADD14C,0.08595*%
%ADD15OC8,0.06000*%
%ADD16OC8,0.09300*%
%ADD17OC8,0.10800*%
%ADD18R,0.06200X0.06200*%
%ADD19C,0.06200*%
D10*
X0096800Y0086800D03*
D11*
X0076800Y0069300D03*
X0076800Y0049300D03*
X0106800Y0056800D03*
X0126800Y0056800D03*
X0161800Y0051800D03*
X0161800Y0011800D03*
X0051800Y0126800D03*
X0051800Y0136800D03*
X0031800Y0129300D03*
X0031800Y0146800D03*
X0051800Y0176800D03*
X0051800Y0186800D03*
X0031800Y0186800D03*
X0031800Y0089300D03*
X0161800Y0146800D03*
X0161800Y0186800D03*
D12*
X0146800Y0149400D02*
X0146800Y0144200D01*
X0146800Y0109400D02*
X0146800Y0104200D01*
X0146800Y0094400D02*
X0146800Y0089200D01*
X0146800Y0054400D02*
X0146800Y0049200D01*
D13*
X0196800Y0046800D03*
X0196800Y0149241D03*
D14*
X0196800Y0138611D03*
X0196800Y0127981D03*
X0196800Y0036170D03*
X0196800Y0025540D03*
D15*
X0181800Y0024300D03*
X0181800Y0074300D03*
X0181800Y0081800D03*
X0181800Y0131800D03*
X0086700Y0166800D03*
X0076800Y0156800D03*
X0066900Y0166800D03*
D16*
X0076800Y0121800D03*
X0011800Y0136800D03*
X0011800Y0089300D03*
X0011800Y0186800D03*
D17*
X0031800Y0049000D03*
X0031800Y0074600D03*
D18*
X0086800Y0141800D03*
D19*
X0086800Y0131800D03*
X0086800Y0121800D03*
X0086800Y0111800D03*
X0116800Y0111800D03*
X0116800Y0121800D03*
X0116800Y0131800D03*
X0116800Y0141800D03*
M02*
